# xmcd
#
# Track frame offsets: 
#        150
#        10943
#        22152
#        35865
#        48961
#        59045
#        68779
#        78663
#        92473
#        102864
#        114118
#        126229
#        137641
#        146490
#        159564
#        170904
#        188554
#        203106
#        219488
#        233716
#        245147
#        253387
#        264666
#        274737
#        286348
#
# Disc length: 3981 seconds
#
# Revision: 4
# Processed by: cddbd v1.5.2PL0 Copyright (c) Steve Scherf et al.
# Submitted via: ExactAudioCopy v1.0b3
#
DISCID=7c0f8b19
DTITLE=Barbara Lynn - The Complete Atlantic Recordings
DYEAR=2014
DGENRE=Soul
TTITLE0=This Is The Thanks I Get
TTITLE1=Ring Telephone Ring
TTITLE2=You'll Lose A Good Thing
TTITLE3=Take Your Love And Run
TTITLE4=Maybe We Can Slip Away
TTITLE5=Sure Is Worth It
TTITLE6=Only You Know How To Love Me
TTITLE7=(Until Then) I'll Suffer
TTITLE8=You're Losing Me
TTITLE9=Sufferin' City
TTITLE10=Multiplyin' Pain
TTITLE11=Why Can't You Love Me
TTITLE12=Mix It Up Baby
TTITLE13=He Ain't Gonna Do Right
TTITLE14=Love Ain't Never Hurt Nobody
TTITLE15=People Like Me
TTITLE16=Unloved, Unwanted Me
TTITLE17=You're Gonna See A Lot More (Of My Leaving)
TTITLE18=Soul Deep
TTITLE19=You Better Quit It
TTITLE20=Nice And Easy
TTITLE21=I'm A One Man Woman
TTITLE22=(Daddy Hot Stuff) You're Too Hot To Hold
TTITLE23=You Make Me So Hot
TTITLE24=It Ain't Good To Be Too Good
EXTD=
EXTT0=
EXTT1=
EXTT2=
EXTT3=
EXTT4=
EXTT5=
EXTT6=
EXTT7=
EXTT8=
EXTT9=
EXTT10=
EXTT11=
EXTT12=
EXTT13=
EXTT14=
EXTT15=
EXTT16=
EXTT17=
EXTT18=
EXTT19=
EXTT20=
EXTT21=
EXTT22=
EXTT23=
EXTT24=
PLAYORDER=
